<?xml version="1.0" encoding="UTF-8" standalone="no"?><!DOCTYPE svg PUBLIC "-//W3C//DTD SVG 1.1//EN" "http://www.w3.org/Graphics/SVG/1.1/DTD/svg11.dtd"><svg width="100%" height="100%" viewBox="0 0 108 108" version="1.1" xmlns="http://www.w3.org/2000/svg" xmlns:xlink="http://www.w3.org/1999/xlink" xml:space="preserve" xmlns:serif="http://www.serif.com/" style="fill-rule:evenodd;clip-rule:evenodd;stroke-linejoin:round;stroke-miterlimit:2;"><g id="Foreground"><g><g id="g98"><rect id="rect88" x="15.624" y="42.132" width="10.264" height="23.46" style="fill:#a297ac;fill-opacity:0.5;"/><path id="path92" d="M37.64,42.132c-2.4,3.293 -3.817,7.348 -3.817,11.73c0,4.383 1.417,8.438 3.817,11.731l-8.819,0l0,-23.461l8.819,0Z" style="fill:#a297ac;fill-opacity:0.5;"/><path id="path86" d="M44.546,36.178c-0.958,0.5 -1.87,1.076 -2.728,1.72c-9.12,0.045 -18.241,0.129 -27.361,0.129c-1.535,0.01 -2.908,1.349 -2.938,2.894c-0.055,8.64 -0.164,17.282 0.001,25.921c0.048,1.519 1.401,2.846 2.937,2.856l27.191,0c0.885,0.679 1.828,1.285 2.821,1.81c-10.026,0.014 -20.052,0.013 -30.078,-0.051c-2.425,-0.046 -4.583,-2.102 -4.631,-4.631l-0.001,-0.064l0,-25.799l0.001,-0.064c0.046,-2.415 2.102,-4.583 4.631,-4.631c10.051,-0.064 20.103,-0.094 30.155,-0.09Zm18.523,0.045c2.776,0.012 5.552,0.027 8.328,0.045c2.431,0.046 4.615,2.156 4.631,4.691l0,4.692l4.112,0l0.061,0.001l0.536,0.037l0.575,0.11l0.548,0.178l0.516,0.241l0.48,0.299l0.438,0.354l0.393,0.403l0.344,0.447l0.288,0.487l0.228,0.523l0.165,0.553l0.096,0.58l0.024,0.479l0,7.039l-0.037,0.597l-0.111,0.574l-0.177,0.548l-0.241,0.516l-0.3,0.48l-0.353,0.439l-0.403,0.393l-0.447,0.343l-0.487,0.288l-0.523,0.229l-0.554,0.164l-0.579,0.096l-0.48,0.025l-4.112,0l0,6.393l-1.759,0c0.004,-2.132 0.029,-25.994 -0.001,-27.584c-0.048,-1.491 -1.356,-2.808 -2.856,-2.855c-1.881,-0.036 -3.763,-0.065 -5.645,-0.087c-0.849,-0.642 -1.751,-1.217 -2.698,-1.718Zm12.968,11.188l0,12.903l4.142,0l0.553,-0.06l0.548,-0.17l0.468,-0.25l0.44,-0.355l0.365,-0.431l0.276,-0.494l0.177,-0.545l0.066,-0.551l0.001,-0.082l-0.001,-7.071l-0.059,-0.553l-0.17,-0.548l-0.27,-0.498l-0.385,-0.46l-0.44,-0.355l-0.501,-0.264l-0.515,-0.156l-0.553,-0.06l-4.142,0Z" style="fill:#a297ac;"/><path id="Shaded-edge" serif:id="Shaded edge" d="M9.759,65.762l0.001,0.064c0.048,2.529 2.206,4.585 4.631,4.631c9.465,0.06 18.931,0.065 28.396,0.053c0.543,0.359 1.104,0.692 1.682,0.998c-10.026,0.014 -20.052,0.013 -30.078,-0.051c-2.425,-0.046 -4.583,-2.102 -4.631,-4.631l-0.001,-0.064l0,-1Zm66.269,2.705l-1.759,0l0.001,-1l1.758,0l0,1Zm8.804,-12.085l0,1l-0.037,0.597l-0.111,0.574l-0.177,0.548l-0.241,0.516l-0.3,0.48l-0.353,0.439l-0.403,0.393l-0.447,0.343l-0.487,0.288l-0.523,0.229l-0.554,0.164l-0.579,0.096l-0.48,0.025l-4.112,0l0,-1l4.112,0l0.48,-0.025l0.579,-0.096l0.554,-0.164l0.523,-0.229l0.487,-0.288l0.447,-0.343l0.403,-0.393l0.353,-0.439l0.3,-0.48l0.241,-0.516l0.177,-0.548l0.111,-0.574l0.037,-0.597Z" style="fill:#1a237e;fill-opacity:0.2;"/><path id="Tinted-edge" serif:id="Tinted edge" d="M64.765,37.231c-0.547,-0.363 -1.113,-0.7 -1.696,-1.008c2.776,0.012 5.552,0.027 8.328,0.045c2.431,0.046 4.615,2.156 4.631,4.691l0,4.692l4.112,0l0.597,0.038l0.575,0.11l0.548,0.178l0.516,0.241l0.48,0.299l0.438,0.354l0.393,0.403l0.344,0.447l0.288,0.487l0.228,0.523l0.165,0.553l0.096,0.58l0.024,0.479l0,1l-0.024,-0.479l-0.096,-0.58l-0.165,-0.553l-0.228,-0.523l-0.288,-0.487l-0.344,-0.447l-0.393,-0.403l-0.438,-0.354l-0.48,-0.299l-0.516,-0.241l-0.548,-0.178l-0.575,-0.11l-0.597,-0.038l-4.112,0l0,-4.692c-0.016,-2.535 -2.2,-4.645 -4.631,-4.691c-2.211,-0.014 -4.421,-0.027 -6.632,-0.037Zm-55.006,4.732l0,-1l0.001,-0.064c0.046,-2.415 2.102,-4.583 4.631,-4.631c10.051,-0.064 20.103,-0.094 30.155,-0.09c-0.585,0.305 -1.153,0.639 -1.701,0.999c-9.485,0 -18.97,0.031 -28.454,0.091c-2.529,0.048 -4.585,2.216 -4.631,4.631l-0.001,0.064Z" style="fill:#fff;fill-opacity:0.2;"/></g><path id="path100" d="M54.417,32.768l1.841,21.094l-5.021,0l1.841,-21.094c1.674,0 -0.335,0 1.339,0Z" style="fill:#7696b4;"/><path id="path102" d="M71.929,72.929l-19.785,-17.198l3.528,-3.528l17.198,19.785c-1.176,1.176 0.235,-0.235 -0.941,0.941Z" style="fill:#7696b4;"/><ellipse id="ellipse106" cx="53.748" cy="53.862" rx="2.51" ry="2.51" style="fill:#7696b4;"/></g><rect id="Finish" x="0" y="0" width="108" height="108" style="fill:url(#_Radial1);"/></g><defs><radialGradient id="_Radial1" cx="0" cy="0" r="1" gradientUnits="userSpaceOnUse" gradientTransform="matrix(108,108,-108,108,-2.84217e-13,5.68434e-14)"><stop offset="0" style="stop-color:#fff;stop-opacity:0"/><stop offset="0.47" style="stop-color:#c4c4c4;stop-opacity:0"/><stop offset="1" style="stop-color:#b3b3b3;stop-opacity:0"/></radialGradient></defs></svg>