<?xml version="1.0" encoding="UTF-8" standalone="no"?><!DOCTYPE svg PUBLIC "-//W3C//DTD SVG 1.1//EN" "http://www.w3.org/Graphics/SVG/1.1/DTD/svg11.dtd"><svg width="100%" height="100%" viewBox="0 0 84 43" version="1.1" xmlns="http://www.w3.org/2000/svg" xmlns:xlink="http://www.w3.org/1999/xlink" xml:space="preserve" xmlns:serif="http://www.serif.com/" style="fill-rule:evenodd;clip-rule:evenodd;stroke-linejoin:round;stroke-miterlimit:2;"><g><g><path d="M13.705,6.235l-2.012,1.007l5.366,2.683l2.013,-1.006l-5.367,-2.684Z" style="fill:#7696b4;"/><path d="M72.307,35.536l-2.013,1.006l-5.366,-2.683l2.012,-1.006l5.367,2.683Z" style="fill:#7696b4;"/></g><g><path d="M11.693,35.536l2.012,1.006l5.367,-2.683l-2.013,-1.006l-5.366,2.683Z" style="fill:#7696b4;"/><path d="M70.294,6.235l2.013,1.007l-5.367,2.683l-2.012,-1.006l5.366,-2.684Z" style="fill:#7696b4;"/></g><g><rect x="40.537" y="38.313" width="2.925" height="3.795" style="fill:#7696b4;"/><rect x="40.537" y="0.67" width="2.925" height="3.795" style="fill:#7696b4;"/></g><g><path d="M83.437,22.064l0,-1.35l-7.589,0l0,1.35l7.589,0Z" style="fill:#7696b4;"/><path d="M0.562,22.064l0,-1.35l7.59,0l0,1.35l-7.59,0Z" style="fill:#7696b4;"/></g></g></svg>