<?xml version="1.0" encoding="UTF-8" standalone="no"?>
<svg
   xmlns:dc="http://purl.org/dc/elements/1.1/"
   xmlns:cc="http://creativecommons.org/ns#"
   xmlns:rdf="http://www.w3.org/1999/02/22-rdf-syntax-ns#"
   xmlns:svg="http://www.w3.org/2000/svg"
   xmlns="http://www.w3.org/2000/svg"
   xmlns:sodipodi="http://sodipodi.sourceforge.net/DTD/sodipodi-0.dtd"
   xmlns:inkscape="http://www.inkscape.org/namespaces/inkscape"
   inkscape:version="1.0 (5b275a35d9, 2020-05-03)"
   sodipodi:docname="tapper_tracker.svg"
   id="svg110"
   style="clip-rule:evenodd;fill-rule:evenodd;stroke-linejoin:round;stroke-miterlimit:2"
   xml:space="preserve"
   version="1.1"
   viewBox="0 0 108 108"
   height="108"
   width="108"><metadata
   id="metadata116"><rdf:RDF><cc:Work
       rdf:about=""><dc:format>image/svg+xml</dc:format><dc:type
         rdf:resource="http://purl.org/dc/dcmitype/StillImage" /><dc:title></dc:title></cc:Work></rdf:RDF></metadata><defs
   id="defs114" /><sodipodi:namedview
   inkscape:current-layer="svg110"
   inkscape:window-maximized="1"
   inkscape:window-y="27"
   inkscape:window-x="0"
   inkscape:cy="51.021546"
   inkscape:cx="36.33967"
   inkscape:zoom="6.1640625"
   showgrid="false"
   id="namedview112"
   inkscape:window-height="972"
   inkscape:window-width="1920"
   inkscape:pageshadow="2"
   inkscape:pageopacity="0"
   guidetolerance="10"
   gridtolerance="10"
   objecttolerance="10"
   borderopacity="1"
   bordercolor="#666666"
   pagecolor="#ffffff" />
    
    
    
    
    <g
   transform="translate(2.191906,1.7758617)"
   id="g130"><g
     id="g98"
     transform="matrix(0.515625,0,0,0.515625,18.808094,20.176541)">
        <path
   d="m 59.311,33.847 c -1.633,0.854 -3.187,1.836 -4.65,2.933 C 39.11,36.858 23.559,37 8.01,37 5.393,37.017 3.051,39.3 3,41.935 2.907,56.666 2.721,71.401 3.002,86.13 3.084,88.72 5.39,90.983 8.009,91 H 54.37 c 1.509,1.157 3.118,2.19 4.811,3.085 C 42.086,94.11 24.991,94.108 7.897,93.999 3.763,93.921 0.083,90.415 0.001,86.103 L 0,85.993 V 42.007 l 0.001,-0.11 c 0.078,-4.118 3.584,-7.814 7.896,-7.896 17.137,-0.109 34.275,-0.16 51.414,-0.154 z m 31.582,0.077 c 4.733,0.021 9.466,0.047 14.199,0.077 4.145,0.079 7.869,3.676 7.897,7.999 v 46.9 h -2.999 c 0.024,-15.677 0.296,-31.356 -0.003,-47.03 -0.081,-2.543 -2.312,-4.787 -4.868,-4.868 -3.208,-0.061 -6.416,-0.11 -9.625,-0.149 -1.448,-1.094 -2.986,-2.075 -4.601,-2.929 z"
   style="fill:#a297ac"
   id="path86" />
        <g
   transform="matrix(0.155433,0,0,0.651941,10,22.2758)"
   id="g90">
            <rect
   x="0"
   y="33.321999"
   width="112.589"
   height="61.355"
   style="fill:#a297ac;fill-opacity:0.5"
   id="rect88" />
        </g>
        <path
   d="m 47.537,44 c -4.092,5.614 -6.508,12.527 -6.508,20 0,7.473 2.416,14.386 6.508,20 H 32.5 V 44 Z"
   style="fill:#a297ac;fill-opacity:0.5"
   id="path92" />
        <g
   transform="matrix(-0.159831,0,0,0.456359,128,34.793)"
   id="g96">
            <path
   d="m 49.406,33.324 -0.644,0.004 -0.643,0.007 -0.64,0.01 -0.639,0.013 -0.636,0.016 -0.634,0.018 -0.632,0.021 -0.629,0.024 -0.627,0.026 -0.625,0.03 -0.622,0.032 -0.62,0.034 -0.618,0.037 -0.614,0.04 -0.612,0.043 -0.61,0.045 -0.606,0.048 -0.604,0.05 -0.601,0.053 -0.598,0.055 -0.595,0.058 -0.592,0.06 -0.59,0.063 -0.586,0.065 -0.582,0.068 -0.58,0.07 -0.577,0.073 -0.573,0.075 -0.57,0.077 -0.566,0.08 -0.563,0.082 -0.56,0.084 -0.556,0.087 -0.552,0.089 -0.549,0.091 -0.545,0.094 -0.542,0.095 -0.537,0.098 -0.534,0.1 -0.53,0.103 -0.526,0.104 -0.522,0.107 -0.518,0.109 -0.514,0.111 -0.51,0.113 -0.506,0.115 -0.501,0.117 -0.497,0.119 -0.493,0.121 -0.489,0.124 -0.484,0.125 -0.479,0.127 -0.475,0.129 -0.471,0.131 -0.466,0.133 -0.461,0.135 -0.457,0.137 -0.451,0.139 -0.447,0.141 -0.442,0.142 -0.438,0.144 -0.432,0.146 -0.427,0.148 -0.422,0.15 -0.417,0.151 -0.412,0.153 -0.407,0.155 -0.401,0.157 -0.396,0.158 -0.391,0.16 -0.385,0.161 -0.38,0.164 -0.375,0.164 -0.369,0.167 -0.363,0.168 -0.357,0.169 -0.352,0.171 -0.347,0.173 -0.34,0.174 -0.334,0.176 -0.329,0.177 -0.323,0.178 -0.316,0.18 -0.311,0.182 -0.305,0.183 -0.298,0.184 -0.292,0.185 -0.286,0.187 -0.28,0.189 -0.273,0.189 -0.267,0.191 -0.261,0.192 -0.254,0.194 -0.247,0.195 -0.241,0.196 -0.234,0.197 -0.228,0.198 -0.221,0.2 -0.214,0.201 -0.207,0.202 -0.2,0.203 -0.194,0.204 -0.186,0.205 -0.18,0.206 -0.172,0.208 -0.165,0.208 -0.158,0.21 -0.151,0.21 -0.143,0.212 -0.137,0.212 -0.128,0.213 -0.122,0.215 -0.114,0.215 -0.106,0.216 -0.099,0.217 -0.091,0.218 -0.084,0.219 -0.075,0.22 -0.068,0.22 L 0.198,49.282 0.146,49.505 0.102,49.727 0.065,49.951 0.037,50.175 0.016,50.4 0.004,50.626 0,50.852 v 26.296 l 0.004,0.226 0.012,0.226 0.021,0.225 0.028,0.224 0.037,0.224 0.044,0.222 0.052,0.223 0.061,0.221 0.068,0.22 0.075,0.22 0.084,0.219 0.091,0.218 0.099,0.217 0.106,0.216 0.114,0.215 0.122,0.215 0.128,0.213 0.137,0.212 0.143,0.212 0.151,0.21 0.158,0.21 0.165,0.208 0.172,0.208 0.18,0.206 0.186,0.205 0.194,0.204 0.2,0.203 0.207,0.202 0.214,0.201 0.221,0.2 0.228,0.198 0.234,0.197 0.241,0.196 0.247,0.195 0.254,0.194 0.261,0.192 0.267,0.191 0.273,0.189 0.28,0.189 0.286,0.187 0.292,0.185 0.298,0.184 0.305,0.183 0.311,0.182 0.316,0.18 0.323,0.178 0.329,0.177 0.334,0.176 0.34,0.174 0.347,0.173 0.352,0.171 0.357,0.169 0.363,0.168 0.369,0.167 0.375,0.164 0.38,0.164 0.385,0.161 0.391,0.16 0.396,0.158 0.401,0.157 0.407,0.155 0.412,0.153 0.417,0.151 0.422,0.15 0.427,0.148 0.432,0.146 0.438,0.144 0.442,0.142 0.447,0.141 0.451,0.139 0.457,0.137 0.461,0.135 0.466,0.133 0.471,0.131 0.475,0.129 0.479,0.127 0.484,0.125 0.489,0.124 0.493,0.121 0.497,0.119 0.501,0.117 0.506,0.115 0.51,0.113 0.514,0.111 0.518,0.109 0.522,0.107 0.526,0.104 0.53,0.103 0.534,0.1 0.537,0.098 0.542,0.095 0.545,0.094 0.549,0.091 0.552,0.089 0.556,0.087 0.56,0.084 0.563,0.082 0.566,0.08 0.57,0.077 0.573,0.075 0.577,0.073 0.58,0.07 0.582,0.068 0.586,0.065 0.59,0.063 0.592,0.06 0.595,0.058 0.598,0.055 0.601,0.053 0.604,0.05 0.606,0.048 0.61,0.045 0.612,0.043 0.614,0.04 0.618,0.037 0.62,0.034 0.622,0.032 0.625,0.03 0.627,0.026 0.629,0.024 0.632,0.021 0.634,0.018 0.636,0.016 0.639,0.013 0.64,0.01 0.643,0.007 0.644,0.004 0.647,0.002 h 62.536 V 33.322 H 50.053 Z m 44.413,6.572 V 88.104 H 50.112 L 49.644,88.103 49.238,88.1 48.833,88.096 48.43,88.089 48.029,88.081 47.63,88.072 47.232,88.06 l -0.395,-0.013 -0.394,-0.015 -0.392,-0.017 -0.39,-0.018 -0.388,-0.02 -0.387,-0.021 -0.384,-0.024 -0.383,-0.024 -0.381,-0.027 -0.38,-0.028 -0.377,-0.03 -0.376,-0.031 -0.374,-0.033 -0.371,-0.034 -0.371,-0.036 -0.368,-0.038 -0.366,-0.039 -0.364,-0.04 -0.363,-0.043 -0.361,-0.043 -0.359,-0.045 -0.356,-0.047 -0.355,-0.048 -0.352,-0.05 -0.351,-0.051 -0.348,-0.052 -0.347,-0.054 -0.344,-0.056 -0.342,-0.057 -0.34,-0.058 -0.338,-0.06 L 35.5,86.847 35.166,86.785 34.835,86.721 34.507,86.655 34.18,86.589 33.857,86.521 33.536,86.451 33.216,86.381 32.9,86.309 32.586,86.235 32.274,86.161 31.966,86.085 31.66,86.008 31.357,85.929 31.056,85.849 30.759,85.768 30.463,85.686 30.17,85.603 29.882,85.518 29.595,85.432 29.311,85.345 29.031,85.257 28.753,85.167 28.48,85.077 28.208,84.985 27.939,84.892 27.674,84.798 27.413,84.703 27.154,84.607 26.899,84.51 26.647,84.412 26.398,84.313 26.153,84.212 25.911,84.111 25.673,84.008 25.439,83.905 25.207,83.801 24.979,83.696 24.755,83.589 24.534,83.482 24.318,83.374 24.105,83.265 23.895,83.155 23.69,83.044 23.488,82.933 23.29,82.82 23.095,82.706 22.905,82.592 22.719,82.477 22.536,82.361 22.358,82.244 22.183,82.127 22.013,82.009 21.846,81.89 21.684,81.77 21.526,81.649 21.371,81.528 21.222,81.406 21.076,81.283 20.934,81.16 20.797,81.035 20.664,80.911 20.534,80.785 20.41,80.659 20.29,80.532 20.174,80.404 20.062,80.276 19.955,80.147 19.852,80.017 19.754,79.887 19.66,79.756 19.571,79.624 19.486,79.492 19.406,79.359 19.33,79.226 19.259,79.092 19.193,78.957 19.131,78.821 19.075,78.686 19.022,78.549 18.975,78.412 18.932,78.274 18.895,78.135 18.862,77.996 18.834,77.856 18.811,77.716 18.793,77.575 18.78,77.433 18.773,77.291 18.77,77.127 V 50.873 l 0.003,-0.164 0.007,-0.142 0.013,-0.142 0.018,-0.141 0.023,-0.14 0.028,-0.14 0.033,-0.139 0.037,-0.139 0.043,-0.138 0.047,-0.137 0.053,-0.137 0.056,-0.135 0.062,-0.136 0.066,-0.135 0.071,-0.134 0.076,-0.133 0.08,-0.133 0.085,-0.132 0.089,-0.132 0.094,-0.131 0.098,-0.13 0.103,-0.13 0.107,-0.129 0.112,-0.128 0.116,-0.128 0.12,-0.127 0.124,-0.126 0.13,-0.126 0.133,-0.125 0.137,-0.124 0.142,-0.123 0.146,-0.123 0.149,-0.122 0.155,-0.121 0.158,-0.121 0.162,-0.12 0.167,-0.119 0.17,-0.118 0.175,-0.117 0.178,-0.117 0.183,-0.116 0.186,-0.115 0.19,-0.114 0.195,-0.114 0.198,-0.113 0.202,-0.111 0.205,-0.111 0.21,-0.11 0.213,-0.109 0.216,-0.108 0.221,-0.107 0.224,-0.107 0.228,-0.105 0.231,-0.104 0.235,-0.103 0.238,-0.103 0.242,-0.101 0.245,-0.101 0.249,-0.099 0.252,-0.098 0.255,-0.097 0.258,-0.096 0.262,-0.095 0.266,-0.094 0.268,-0.093 0.272,-0.092 0.273,-0.09 0.278,-0.09 0.28,-0.088 0.284,-0.087 0.287,-0.086 0.288,-0.085 0.293,-0.083 0.295,-0.082 0.298,-0.081 0.301,-0.08 0.303,-0.079 0.306,-0.077 0.308,-0.076 0.312,-0.074 0.314,-0.074 0.316,-0.072 0.32,-0.07 0.321,-0.07 0.324,-0.068 0.326,-0.066 0.328,-0.066 0.331,-0.064 0.334,-0.062 0.335,-0.061 0.338,-0.06 0.34,-0.058 0.342,-0.057 0.344,-0.056 0.346,-0.054 0.349,-0.052 0.351,-0.051 0.352,-0.05 0.355,-0.048 0.357,-0.047 0.358,-0.045 0.361,-0.043 0.362,-0.043 0.365,-0.04 0.366,-0.039 0.368,-0.038 0.371,-0.036 0.371,-0.034 0.374,-0.033 0.376,-0.031 0.377,-0.03 0.38,-0.028 0.38,-0.026 0.384,-0.025 0.385,-0.024 0.386,-0.021 0.388,-0.02 0.39,-0.018 0.392,-0.017 0.394,-0.015 0.396,-0.013 0.397,-0.012 0.399,-0.009 0.401,-0.008 0.403,-0.007 0.405,-0.004 0.406,-0.003 0.468,-10e-4 z"
   style="fill:#a297ac"
   id="path94" />
        </g>
    </g><path
     d="m 57.892469,34.631572 1.134375,18.544969 h -3.09375 l 1.134375,-18.544969 c 1.03125,0 -0.20625,0 0.825,0 z"
     style="fill:#7696b4;stroke-width:0.515625"
     id="path100" /><g
     transform="matrix(-0.36460194,0.36460194,-0.36460194,-0.36460194,108.30098,49.257895)"
     id="g104">
        <path
   d="M 75.8,19.413 78,64 h -6 l 2.2,-44.587 c 2,0 -0.4,0 1.6,0 z"
   style="fill:#7696b4"
   id="path102" />
    </g><g
     transform="matrix(0.49825514,0,0,0.49054139,20.058722,22.010325)"
     id="g108">
        <ellipse
   cx="75.105003"
   cy="63.534"
   rx="3.105"
   ry="3.1530001"
   style="fill:#7696b4"
   id="ellipse106" />
    </g></g>
</svg>
